<svg width="137" height="137" viewBox="0 0 137 137" fill="none" xmlns="http://www.w3.org/2000/svg">
<path d="M85.214 51.375H85.625C95.0666 51.375 102.75 43.6916 102.75 34.25V17.125C102.75 7.68342 95.0666 0 85.625 0H51.375C41.9334 0 34.25 7.68342 34.25 17.125V34.25C34.25 43.6916 41.9334 51.375 51.375 51.375H52.5281L62.9971 60.6054C64.6526 62.0667 66.7247 62.7974 68.7968 62.7974C70.8404 62.7974 72.884 62.0781 74.4937 60.651L85.214 51.3807V51.375ZM31.3958 102.75C42.4129 102.75 51.375 93.7879 51.375 82.7708C51.375 71.7538 42.4129 62.7917 31.3958 62.7917C20.3787 62.7917 11.4166 71.7538 11.4166 82.7708C11.4166 93.7879 20.3787 102.75 31.3958 102.75ZM85.625 82.7708C85.625 93.7879 94.5871 102.75 105.604 102.75C116.621 102.75 125.583 93.7879 125.583 82.7708C125.583 71.7538 116.621 62.7917 105.604 62.7917C94.5871 62.7917 85.625 71.7538 85.625 82.7708ZM31.3958 108.458C17.5017 108.458 5.03472 116.827 0.359599 129.288C-0.29686 131.041 -0.0514015 133.004 1.01035 134.545C2.08352 136.087 3.83027 137 5.7026 137H57.0776C58.9499 137 60.7024 136.081 61.7698 134.545C62.8373 133.004 63.0771 131.041 62.4206 129.288C57.7512 116.827 45.2785 108.458 31.3844 108.458H31.3958ZM136.64 129.288C131.971 116.827 119.498 108.458 105.604 108.458C91.7101 108.458 79.2431 116.827 74.5679 129.288C73.9115 131.041 74.1569 133.004 75.2187 134.545C76.2918 136.087 78.0386 137 79.9109 137H131.286C133.158 137 134.911 136.081 135.978 134.545C137.046 133.004 137.285 131.041 136.629 129.288H136.64Z" fill="#00045A"/>
</svg>
