<svg width="135" height="135" viewBox="0 0 135 135" fill="none" xmlns="http://www.w3.org/2000/svg">
<path d="M97.3687 84.375C118.997 84.375 129.769 107.038 134.533 122.034C136.581 128.486 131.603 135 124.701 135H100.716C87.3281 135 73.125 123.666 73.125 109.688C73.125 95.7094 83.9812 84.375 97.3687 84.375ZM6.5925 107.544C2.37375 111.763 1.67638e-07 117.489 1.67638e-07 123.452V135H11.5481C17.5163 135 23.2369 132.632 27.4556 128.408L102.999 52.8638L82.1306 31.995L6.5925 107.544ZM130.68 4.32C124.92 -1.44 115.577 -1.44 109.811 4.32L90.0844 24.0469L110.953 44.9156L130.68 25.1888C136.44 19.4288 136.44 10.0856 130.68 4.32ZM4.32 25.1888C-1.44 19.4288 -1.44 10.0856 4.32 4.32C10.0856 -1.44 19.4288 -1.44 25.1888 4.32L58.3706 39.8531L37.5019 60.7219L4.32 25.1888Z" fill="#00045A"/>
</svg>
