<svg width="137" height="137" viewBox="0 0 137 137" fill="none" xmlns="http://www.w3.org/2000/svg">
<g clip-path="url(#clip0_348_511)">
<path d="M97.0417 85.625H39.9583V74.2083H97.0417V85.625ZM62.7232 52.0372C64.39 53.5156 66.4792 54.2463 68.5514 54.2463C70.5721 54.2463 72.5758 53.5442 74.1284 52.1628L81.9774 45.6667H97.3214V11.6907C97.3214 5.24596 92.0811 0 85.6307 0H51.923C45.4783 0 40.238 5.24025 40.238 11.6907V45.6667H55.034L62.7289 52.0372H62.7232ZM122.729 51.375C130.612 51.375 137 44.9874 137 37.1042C137 29.221 130.612 22.8333 122.729 22.8333C114.846 22.8333 108.458 29.221 108.458 37.1042C108.458 44.9874 114.846 51.375 122.729 51.375ZM14.2708 51.375C22.154 51.375 28.5417 44.9874 28.5417 37.1042C28.5417 29.221 22.154 22.8333 14.2708 22.8333C6.38762 22.8333 0 29.221 0 37.1042C0 44.9874 6.38762 51.375 14.2708 51.375ZM0 137H28.5417V125.583H0V137ZM122.729 57.0833C114.846 57.0833 108.458 63.471 108.458 71.3542V102.75H85.625V137H97.0417V114.167H119.875C129.334 114.167 137 106.5 137 97.0417V71.3542C137 63.471 130.612 57.0833 122.729 57.0833ZM28.5417 71.3542C28.5417 63.471 22.154 57.0833 14.2708 57.0833C6.38762 57.0833 0 63.471 0 71.3542V97.0417C0 106.5 7.66629 114.167 17.125 114.167H39.9583V137H51.375V102.75H28.5417V71.3542ZM108.458 137H137V125.583H108.458V137Z" fill="#00045A"/>
</g>
<defs>
<clipPath id="clip0_348_511">
<rect width="137" height="137" fill="white"/>
</clipPath>
</defs>
</svg>
