<svg width="25" height="26" viewBox="0 0 25 26" fill="none" xmlns="http://www.w3.org/2000/svg">
<path d="M8.0514 1.57868C7.67544 0.670522 6.68428 0.187144 5.73705 0.445922L1.44037 1.61775C0.590794 1.85211 0 2.62356 0 3.50243C0 15.582 9.79449 25.3765 21.874 25.3765C22.7529 25.3765 23.5244 24.7857 23.7587 23.9361L24.9305 19.6394C25.1893 18.6922 24.7059 17.701 23.7978 17.3251L19.1105 15.372C18.3146 15.04 17.3918 15.2695 16.8498 15.9384L14.8773 18.3455C11.4399 16.7196 8.65685 13.9365 7.03094 10.4992L9.43806 8.5315C10.107 7.98465 10.3365 7.06672 10.0044 6.27086L8.0514 1.58357V1.57868Z" fill="black"/>
</svg>
